<?xml version="1.0" encoding="utf-8"?>
<!-- Generator: Adobe Illustrator 25.2.1, SVG Export Plug-In . SVG Version: 6.00 Build 0)  -->
<svg version="1.1" xmlns="http://www.w3.org/2000/svg" xmlns:xlink="http://www.w3.org/1999/xlink" x="0px" y="0px"
	 viewBox="0 0 664.7 421.7" style="enable-background:new 0 0 664.7 421.7;" xml:space="preserve">
<style type="text/css">
	.st0{display:none;}
	.st1{display:inline;fill:#F1E0DF;}
	.st2{fill:#E3CDC9;}
	.st3{fill:#8155FF;}
	.st4{fill:none;stroke:#FFFFFF;stroke-width:0.6238;stroke-miterlimit:10;}
	.st5{fill:none;stroke:#FFFFFF;stroke-width:1.0888;stroke-miterlimit:10;}
	.st6{fill:none;stroke:#FAFAFA;stroke-width:1.103;stroke-linecap:round;stroke-linejoin:round;stroke-miterlimit:10;}
	.st7{fill:#FDB9B9;}
	.st8{fill:#FFFFFF;}
	.st9{fill:#2B4183;}
	.st10{fill:#FFCB2D;}
	.st11{fill:none;stroke:#F0E0DF;stroke-width:2.2132;stroke-miterlimit:10;}
	.st12{fill:#F88AA0;}
	.st13{fill:none;stroke:#FFFFFF;stroke-width:2.0174;stroke-miterlimit:10;}
	.st14{fill:#FFA80A;}
	.st15{fill:#F67B91;}
	.st16{fill:#F6F6F6;}
	.st17{opacity:0.71;}
	.st18{clip-path:url(#SVGID_2_);fill:#FFFFFF;}
	.st19{fill:#8054FF;}
	.st20{fill:#7041FD;}
	.st21{fill:#FA849B;}
	.st22{fill:#181F42;}
	.st23{fill:none;stroke:#FFFFFF;stroke-width:1.5042;stroke-linecap:round;stroke-linejoin:round;stroke-miterlimit:10;}
	.st24{fill:#FFCD2E;}
	.st25{fill:#F2BB19;}
	.st26{fill:#E6728C;}
	.st27{fill:#312725;}
	.st28{fill:#F8879D;}
	.st29{fill:none;stroke:#312725;stroke-width:0.5974;stroke-linecap:round;stroke-linejoin:round;stroke-miterlimit:10;}
	.st30{fill:none;stroke:#FFFFFF;stroke-width:1.5477;stroke-linecap:round;stroke-linejoin:round;stroke-miterlimit:10;}
	.st31{fill:#243B77;}
	.st32{fill:#32292A;}
	.st33{fill:none;stroke:#312725;stroke-width:0.6026;stroke-linecap:round;stroke-linejoin:round;stroke-miterlimit:10;}
	.st34{fill:none;stroke:#281F27;stroke-width:0.7565;stroke-miterlimit:10;}
	.st35{display:inline;}
	.st36{fill:#1C1C1B;}
</style>
<g id="BACKGROUND" class="st0">
	<rect x="-44.9" y="-26.6" class="st1" width="750" height="500"/>
</g>
<g id="OBJECTS">
	<g>
		<path class="st2" d="M126.5,363.9c5.3,0.6,10.1,1.7,14.5,3.2c0,0,0,0,0,0c0.1,0,0.1,0,0.2,0.1c0.2,0.1,0.3,0.1,0.5,0.2
			c26.4,9.4,38.5,7.7,48.9,4.5c28-8.6,44.7-45.7,90.1-38.5c19.3,3,34.8,7.2,46.8,15.6c0,0,0,0,0,0c0.1,0.1,0.2,0.1,0.3,0.2
			c1.7,1.2,3.4,2.5,5,3.7c23.6,15.4,47.1-4.7,53.9-9.2c0.5-0.4,1-3.2,1.5-3.6c0.3-0.2,0.4-0.3,0.4-0.3l0,0
			c29.6-20.9,76.7-42,122-36.8c78,8.9,109.3,97.3,109.3,97.3H365.9h-20.7H183.7H148H37.4C46.5,379.3,82.9,358.9,126.5,363.9z"/>
		<g>
			<g>
				<g>
					<path class="st3" d="M67.3,139.1h45.9c1.1,0,1.9-0.9,1.9-1.9v-12.8c0-1.1-0.9-1.9-1.9-1.9H67.3c-1.1,0-1.9,0.9-1.9,1.9v12.8
						C65.4,138.2,66.3,139.1,67.3,139.1z"/>
					<g>
						<line class="st4" x1="75.2" y1="128.9" x2="107.8" y2="128.9"/>
						<line class="st4" x1="75.2" y1="132.6" x2="84.8" y2="132.6"/>
					</g>
				</g>
				<polygon class="st3" points="109.3,136.8 109.3,144.4 99.7,136.8 				"/>
			</g>
			<g>
				<ellipse class="st5" cx="606" cy="212.3" rx="5.6" ry="5.7"/>
				<ellipse class="st5" cx="44.8" cy="247.9" rx="8" ry="8.1"/>
				<path class="st5" d="M348.1,79.5c0,1.7-1.4,3.1-3,3.1c-1.7,0-3-1.4-3-3.1c0-1.7,1.4-3.1,3-3.1C346.8,76.5,348.1,77.8,348.1,79.5
					z"/>
			</g>
			<g>
				<path class="st6" d="M86.7,63h130.1c0,0-0.6-5.2-15.1-9.3c-14.5-4.1-24.8,6.5-41.2,0c-16.3-6.5-25-15.7-46.1-10.6
					C93.5,48.3,86.7,63,86.7,63z"/>
				<path class="st6" d="M499.1,108.6h67.3c0,0-0.3-3.2-7.8-5.8c-7.5-2.6-12.8,4.1-21.3,0c-8.4-4.1-12.9-9.9-23.8-6.6
					C502.6,99.4,499.1,108.6,499.1,108.6z"/>
				<ellipse transform="matrix(0.1591 -0.9873 0.9873 0.1591 329.795 471.489)" class="st7" cx="441.7" cy="42.1" rx="22" ry="22"/>
			</g>
		</g>
	</g>
	<g>
		<g>
			<g>
				<rect x="200.5" y="169.4" class="st8" width="228.9" height="229.6"/>
				<path class="st3" d="M429.4,133.3v36.1H200.5v-36.1c0-7.2,5.8-13,13-13h202.9C423.6,120.3,429.4,126.1,429.4,133.3z"/>
				<g>
					<g>
						<circle class="st9" cx="393.9" cy="142.7" r="10.8"/>
						<path class="st10" d="M393.9,146.8L393.9,146.8c3.4,0,6.2-2.8,6.2-6.2v-27.9c0-3.4-2.8-6.2-6.2-6.2l0,0
							c-3.4,0-6.2,2.8-6.2,6.2v27.9C387.8,144,390.5,146.8,393.9,146.8z"/>
					</g>
					<g>
						<circle class="st9" cx="317.9" cy="142.7" r="10.8"/>
						<path class="st10" d="M317.9,146.8L317.9,146.8c3.4,0,6.2-2.8,6.2-6.2v-27.9c0-3.4-2.8-6.2-6.2-6.2l0,0
							c-3.4,0-6.2,2.8-6.2,6.2v27.9C311.8,144,314.5,146.8,317.9,146.8z"/>
					</g>
					<g>
						<circle class="st9" cx="241.9" cy="142.7" r="10.8"/>
						<path class="st10" d="M241.9,146.8L241.9,146.8c3.4,0,6.2-2.8,6.2-6.2v-27.9c0-3.4-2.8-6.2-6.2-6.2l0,0
							c-3.4,0-6.2,2.8-6.2,6.2v27.9C235.8,144,238.5,146.8,241.9,146.8z"/>
					</g>
				</g>
			</g>
			<g>
				<g>
					
						<rect x="352.1" y="206.3" transform="matrix(-1 -1.224647e-16 1.224647e-16 -1 747.668 456.1868)" class="st11" width="43.5" height="43.5"/>
					
						<rect x="294.2" y="206.3" transform="matrix(-1 -1.224647e-16 1.224647e-16 -1 631.856 456.1868)" class="st11" width="43.5" height="43.5"/>
					
						<rect x="236.3" y="206.3" transform="matrix(-1 -1.224647e-16 1.224647e-16 -1 516.044 456.1868)" class="st11" width="43.5" height="43.5"/>
				</g>
				<g>
					
						<rect x="352.1" y="261.6" transform="matrix(-1 -1.224647e-16 1.224647e-16 -1 747.668 566.6815)" class="st11" width="43.5" height="43.5"/>
					
						<rect x="294.2" y="261.6" transform="matrix(-1 -1.224647e-16 1.224647e-16 -1 631.856 566.6815)" class="st11" width="43.5" height="43.5"/>
					
						<rect x="236.3" y="261.6" transform="matrix(-1 -1.224647e-16 1.224647e-16 -1 516.044 566.6815)" class="st12" width="43.5" height="43.5"/>
					<g>
						<line class="st13" x1="252" y1="277.1" x2="264.1" y2="289.6"/>
						<line class="st13" x1="264.1" y1="277.1" x2="252" y2="289.6"/>
					</g>
				</g>
				<g>
					
						<rect x="352.1" y="316.8" transform="matrix(-1 -1.224647e-16 1.224647e-16 -1 747.668 677.1761)" class="st11" width="43.5" height="43.5"/>
					
						<rect x="294.2" y="316.8" transform="matrix(-1 -1.224647e-16 1.224647e-16 -1 631.856 677.1761)" class="st11" width="43.5" height="43.5"/>
					
						<rect x="236.3" y="316.8" transform="matrix(-1 -1.224647e-16 1.224647e-16 -1 516.044 677.1761)" class="st11" width="43.5" height="43.5"/>
				</g>
			</g>
		</g>
		<g>
			<g>
				<g>
					<rect x="404.3" y="247.7" class="st14" width="21.2" height="13.9"/>
					<path class="st10" d="M428.8,251.4h-27.7c-3.2,0-5.7-2.6-5.7-5.7l0,0c0-3.2,2.6-5.7,5.7-5.7h27.7c3.2,0,5.7,2.6,5.7,5.7l0,0
						C434.5,248.8,431.9,251.4,428.8,251.4z"/>
				</g>
				<g>
					
						<rect x="353.3" y="273.1" transform="matrix(0.7071 -0.7071 0.7071 0.7071 -91.3839 337.567)" class="st14" width="16.9" height="11.9"/>
					<path class="st10" d="M367.3,268.4l-16.7,16.7c-1.7,1.7-4.4,1.7-6.1,0l0,0c-1.7-1.7-1.7-4.4,0-6.1l16.7-16.7
						c1.7-1.7,4.4-1.7,6.1,0l0,0C369,264,369,266.7,367.3,268.4z"/>
				</g>
			</g>
			<g>
				<g>
					<circle class="st15" cx="414.7" cy="327.3" r="71.6"/>
					<circle class="st12" cx="414.7" cy="327.3" r="67.7"/>
					<circle class="st16" cx="414.7" cy="327.3" r="60.1"/>
				</g>
				<g class="st17">
					<defs>
						<circle id="SVGID_1_" class="st17" cx="414.7" cy="327.3" r="60.1"/>
					</defs>
					<clipPath id="SVGID_2_">
						<use xlink:href="#SVGID_1_"  style="overflow:visible;"/>
					</clipPath>
					<polygon class="st18" points="348.9,279.7 440,420.9 481.1,385.5 391,259.2 					"/>
					<polygon class="st18" points="397.5,245.7 488.5,386.9 493.8,369.2 403.7,242.9 					"/>
				</g>
				<g>
					<g>
						<g>
							<path class="st19" d="M415,280.7c-0.8,0-1.5-0.7-1.5-1.5v-3.5c0-0.8,0.7-1.5,1.5-1.5s1.5,0.7,1.5,1.5v3.5
								C416.5,280.1,415.8,280.7,415,280.7z"/>
							<path class="st19" d="M415,381.1c-0.8,0-1.5-0.7-1.5-1.5v-3.5c0-0.8,0.7-1.5,1.5-1.5s1.5,0.7,1.5,1.5v3.5
								C416.5,380.4,415.8,381.1,415,381.1z"/>
						</g>
						<g>
							<path class="st19" d="M380.7,294.9c-0.4,0-0.8-0.1-1.1-0.4l-2.5-2.5c-0.6-0.6-0.6-1.5,0-2.1c0.6-0.6,1.5-0.6,2.1,0l2.5,2.5
								c0.6,0.6,0.6,1.5,0,2.1C381.5,294.8,381.1,294.9,380.7,294.9z"/>
							<path class="st19" d="M451.7,365.9c-0.4,0-0.8-0.1-1.1-0.4l-2.5-2.5c-0.6-0.6-0.6-1.5,0-2.1c0.6-0.6,1.5-0.6,2.1,0l2.5,2.5
								c0.6,0.6,0.6,1.5,0,2.1C452.5,365.8,452.1,365.9,451.7,365.9z"/>
						</g>
						<g>
							<path class="st19" d="M378.2,365.9c-0.4,0-0.8-0.1-1.1-0.4c-0.6-0.6-0.6-1.5,0-2.1l2.5-2.5c0.6-0.6,1.5-0.6,2.1,0
								c0.6,0.6,0.6,1.5,0,2.1l-2.5,2.5C379,365.8,378.6,365.9,378.2,365.9z"/>
							<path class="st19" d="M449.2,294.9c-0.4,0-0.8-0.1-1.1-0.4c-0.6-0.6-0.6-1.5,0-2.1l2.5-2.5c0.6-0.6,1.5-0.6,2.1,0
								c0.6,0.6,0.6,1.5,0,2.1l-2.5,2.5C450,294.8,449.6,294.9,449.2,294.9z"/>
						</g>
						<g>
							<path class="st19" d="M366.5,329.2H363c-0.8,0-1.5-0.7-1.5-1.5c0-0.8,0.7-1.5,1.5-1.5h3.5c0.8,0,1.5,0.7,1.5,1.5
								C368,328.5,367.4,329.2,366.5,329.2z"/>
							<path class="st19" d="M466.9,329.2h-3.5c-0.8,0-1.5-0.7-1.5-1.5c0-0.8,0.7-1.5,1.5-1.5h3.5c0.8,0,1.5,0.7,1.5,1.5
								C468.4,328.5,467.8,329.2,466.9,329.2z"/>
						</g>
					</g>
					<g>
						<path class="st19" d="M418.6,327.1h-7.2v-31.3c0-2,1.6-3.6,3.6-3.6l0,0c2,0,3.6,1.6,3.6,3.6V327.1z"/>
						<circle class="st9" cx="415" cy="327.1" r="8.3"/>
					</g>
				</g>
			</g>
		</g>
	</g>
	<g>
		<g>
			<g>
				<g>
					<path class="st20" d="M167.8,252.6l13.1,57.7c0.8,5.5-1.3,11-5.5,14.4l-39.1,30.5l0.7-28.1l19.5-15.9L136.3,251L167.8,252.6z"
						/>
				</g>
				<g>
					<polygon class="st21" points="117.3,355.5 136.1,345.7 128.6,335.2 108.2,346.3 114.7,354.5 					"/>
					<g>
						<path class="st22" d="M112.8,341.9c0,0,3.2,11.6,12.3,11l3.5,27.8l-27-34.2L112.8,341.9z"/>
						
							<rect x="91.7" y="362.7" transform="matrix(0.6192 0.7852 -0.7852 0.6192 329.6637 49.7583)" class="st8" width="43.6" height="4.1"/>
						<path class="st23" d="M125.6,356.5c0,0-2.1-0.7-5.3-0.5"/>
						<path class="st23" d="M126.4,360.6c0,0-2.1-0.7-5.3-0.5"/>
						<path class="st23" d="M127.1,364.6c0,0-2.1-0.7-5.3-0.5"/>
					</g>
				</g>
			</g>
			<g>
				<g>
					<polygon class="st21" points="134.1,389.5 136,368.6 123.1,368 121.2,390.9 131.7,390.9 					"/>
					<g>
						<path class="st22" d="M119.6,384.6c0,0,11.1,4.7,16.3-2.9l24,14.4h-43.6L119.6,384.6z"/>
						<rect x="116.2" y="396.1" class="st8" width="43.6" height="4.1"/>
						<path class="st23" d="M139,383.6c0,0-1.8,1.2-3.7,3.8"/>
						<path class="st23" d="M142.7,385.5c0,0-1.8,1.2-3.7,3.8"/>
						<path class="st23" d="M146.3,387.4c0,0-1.8,1.2-3.7,3.8"/>
					</g>
				</g>
				<g>
					<g>
						<g>
							<polygon class="st3" points="124.6,251.2 118.7,372.9 141.1,372.9 157.3,251.6 							"/>
						</g>
					</g>
					<polygon class="st3" points="167.8,252.6 167.8,252.6 154.3,273.8 151.5,252.1 					"/>
				</g>
			</g>
		</g>
		<g>
			<g>
				<polygon class="st21" points="225.8,232 212.5,233.1 214.9,219.7 228.8,220.8 				"/>
				<g>
					<g>
						<g>
							<g>
								<path class="st21" d="M237,231.4c-3.9,3.4-9.8,2.9-13.2-1c-3.4-3.9-2.9-9.8,1-13.2c3.9-3.4,9.8-2.9,13.2,1
									C241.4,222.1,241,228,237,231.4z"/>
								<path class="st21" d="M231.4,214.9c0,0-1.7-3.9-5.7-1c-4,2.9-7.5,8.8-1.9,16.4L231.4,214.9z"/>
							</g>
						</g>
					</g>
					<path class="st21" d="M231.4,214.9l10.7-2.7c0.9-0.3,1.9,0.2,2.2,1.1l0,0c0.3,0.8-0.1,1.6-0.8,1.9l-10.9,4.9L231.4,214.9z"/>
				</g>
				<g>
					<path class="st24" d="M175.5,196.3l17.6,27.9c2.5,4.5,1.1,10.1-3.2,12.9l0,0c-4.5,2.9-10.5,1.7-13.5-2.8L157,207.5
						c-2.8-4.3-2.2-10,1.4-13.6v0C163.5,188.8,172,190,175.5,196.3z"/>
					<polygon class="st25" points="170,225.4 171,210.2 174.8,232.1 					"/>
				</g>
				<g>
					<path class="st24" d="M184,221.3l38.8-4.6l-0.1,17.7l-36.1,4.6c-5.7,1.1-10.9-3.4-10.7-9.2l0,0
						C176,225.5,179.5,221.8,184,221.3z"/>
				</g>
			</g>
			<g>
				<g>
					<g>
						<path class="st21" d="M116.9,273.8c0,0,4.3,0.3,3.6-4.6c-0.7-4.9-4.4-10.9-13.8-9.6L116.9,273.8z"/>
						
							<rect x="85.6" y="269.9" transform="matrix(-1 -1.224647e-16 1.224647e-16 -1 214.6489 583.4059)" class="st24" width="43.5" height="43.5"/>
						
							<rect x="87.6" y="269.9" transform="matrix(-1 -1.224647e-16 1.224647e-16 -1 218.6727 583.4059)" class="st24" width="43.5" height="43.5"/>
						<path class="st21" d="M99.4,271c-1.1-5.1,2.1-10.2,7.2-11.4c5.1-1.1,10.2,2.1,11.4,7.2c1.1,5.1-2.1,10.2-7.2,11.4
							C105.6,279.4,100.6,276.1,99.4,271z"/>
					</g>
					<path class="st24" d="M118,223.7l-0.4,39l-17.1-0.8L100,224c-0.4-5.8,4.7-10.4,10.5-9.5l0,0C114.9,215.3,118.1,219.2,118,223.7
						z"/>
				</g>
				<g>
					<path class="st24" d="M140,207.4l-23.6,23c-3.9,3.4-9.6,3.2-13.3-0.4l0,0c-3.8-3.8-3.8-9.9-0.1-13.7l22.1-24.6
						c3.6-3.6,9.3-4.3,13.6-1.5l0,0C144.7,194.1,145.3,202.7,140,207.4z"/>
				</g>
			</g>
			<g>
				<g>
					<path class="st24" d="M166.3,190.7l-33.5-2.2c-3-0.2-8.4,5.3-8.1,8.3l0,54.4l43.2,1.4l4.4-55.2
						C172.4,193.9,169.8,190.9,166.3,190.7z"/>
				</g>
				<polygon class="st25" points="124.6,222.4 134.4,212.9 124.6,238.6 				"/>
			</g>
		</g>
		<g>
			<path class="st26" d="M160.8,168.2c-0.2,2.5,1.6,4.7,4,5c2.4,0.2,4.6-1.6,4.8-4.2c0.2-2.5-1.6-4.7-4-5
				C163.2,163.8,161,165.6,160.8,168.2z"/>
			<path class="st21" d="M158.2,178.9l-0.2,11c-0.1,3.8-2.4,5.9-6.1,5.8l0,0c-3.1-0.1-6.5-1.7-6.3-5.1l1.1-17.2L158.2,178.9z"/>
			<path class="st27" d="M158.1,186.2c0,0-8.9,0.6-11.5-9.5c-0.8-3.2,11.7,1.1,11.7,1.1L158.1,186.2z"/>
			<path class="st28" d="M154.9,182.1L154.9,182.1c6.3,0.1,11.5-4.9,11.8-10.1l0.5-11c0.4-6.6-4.4-12.3-10.8-12.9l0,0
				c-6.5-0.6-13.4,4.3-14,11.1l-0.3,8.6C141.8,175.4,147.4,181.4,154.9,182.1z"/>
			<g>
				<polyline class="st29" points="160.2,167.1 160.5,170.7 158.9,170.7 				"/>
				<path class="st27" d="M153.4,159.8c0,0,2.6-0.2,2.6,0.9c0,0,0,0.7-2.3,0.8c-2.2,0.1-2.8-0.1-3-0.8
					C150.5,160.1,152.2,159.8,153.4,159.8z"/>
				<path class="st27" d="M164.1,162.3c0,0-2.1-0.3-2.3,0.7c0,0-0.1,0.7,1.7,0.9c1.8,0.2,2.5,0,2.6-0.6
					C166.4,162.7,165.1,162.3,164.1,162.3z"/>
				<path class="st27" d="M162.5,166.4c0,0.6,0.4,1.1,1,1.2c0.6,0,1.1-0.4,1.1-1.1c0-0.6-0.4-1.1-1-1.2
					C163,165.3,162.5,165.8,162.5,166.4z"/>
				<path class="st27" d="M153.1,165.9c0,0.6,0.4,1.1,1,1.2c0.6,0,1.1-0.4,1.1-1.1c0-0.6-0.4-1.1-1-1.2
					C153.6,164.8,153.1,165.3,153.1,165.9z"/>
				<path class="st29" d="M155.7,172.3c0.1,0.2,1.5,1.7,3.6,1.2"/>
			</g>
			<path class="st27" d="M164.6,142.6c-2.4-1-8.5-2.2-9.9,3.2c-6.1-0.5-15.8-0.4-16.7,4.9c-1.4,7.8,4.1,15.4,4.1,15.4l1.5,0.8
				c0,0,3.9-2,2.9-11.3c0,0,14.1,3.4,20.7-0.2C173.8,152,171.8,145.7,164.6,142.6z"/>
			<g>
				<path class="st28" d="M136.3,167.3c-0.2,2.5,1.6,4.7,4,4.9c2.4,0.2,4.6-1.6,4.8-4.1c0.2-2.5-1.6-4.7-4-4.9
					C138.7,163,136.5,164.8,136.3,167.3z"/>
				<path class="st29" d="M142.1,169c0,0,0.3-3.3-2.8-3"/>
			</g>
			<path class="st21" d="M141.4,189.1l20.1,1.3c0,0,0.6,6.9-8.3,6.4C143.1,196.3,141.4,189.1,141.4,189.1z"/>
		</g>
	</g>
	<g>
		<g>
			<g>
				<g>
					<polygon class="st21" points="561.2,356.4 541.4,347.2 548.6,336.1 570.1,346.5 563.8,355.3 					"/>
					<g>
						<path class="st22" d="M565.2,342.2c0,0-2.7,12.1-12.2,11.9l-2.3,28.7l26.1-36.5L565.2,342.2z"/>
						
							<rect x="543.1" y="363.7" transform="matrix(-0.5827 0.8127 -0.8127 -0.5827 1192.318 119.3235)" class="st8" width="44.9" height="4.2"/>
						<path class="st30" d="M552.7,357.9c0,0,2.1-0.8,5.4-0.8"/>
						<path class="st30" d="M552.1,362.1c0,0,2.1-0.8,5.4-0.8"/>
						<path class="st30" d="M551.5,366.3c0,0,2.1-0.8,5.4-0.8"/>
					</g>
				</g>
				<path class="st31" d="M515.3,235.9c0,0-12.9,48.3-14.8,57.8c-1.9,9.5-5.7,28.6,2.3,35.4c8,6.9,38.7,23.3,38.7,23.3l11.3-20.3
					l-18.3-11L515.3,235.9z"/>
			</g>
			<g>
				<g>
					<polygon class="st21" points="532.7,389.4 528.7,368 541.9,367.3 545.9,390.9 535.1,390.9 					"/>
					<g>
						<path class="st22" d="M546.6,384.4c0,0-11.4,4.9-16.7-3l-24.7,14.8h44.9L546.6,384.4z"/>
						
							<rect x="505.2" y="396.2" transform="matrix(-1 -1.224647e-16 1.224647e-16 -1 1055.2412 796.7137)" class="st8" width="44.9" height="4.2"/>
						<path class="st30" d="M526.6,383.3c0,0,1.9,1.3,3.8,3.9"/>
						<path class="st30" d="M522.9,385.3c0,0,1.9,1.3,3.8,3.9"/>
						<path class="st30" d="M519.1,387.3c0,0,1.9,1.3,3.8,3.9"/>
					</g>
				</g>
				<path class="st9" d="M515.3,235.9l-1.3,72.8c0,2.6,0.2,5.2,0.6,7.8l10.8,56.2h22.6l-6.3-63.3c0.3-11.6,4.1-24.7,5.6-38.9
					c0,0,4.4-26.4-7.7-34.4L515.3,235.9z"/>
			</g>
		</g>
		<g>
			<g>
				<g>
					<g>
						<path class="st21" d="M500.8,225.9l-37-13.5l-4.3,7.2l36.1,19.1c6,2.3,12.2-2.9,11.1-9.2v0
							C506.1,226.6,503.6,226.9,500.8,225.9z"/>
					</g>
					<g>
						<g>
							<path class="st21" d="M459.3,206.9c-0.7-0.7-1.7-1-2.6-0.8c-1.2,0.3-1.7,1.5-1,2.6l0.5,0.9c-1.2,0.5-3.6,0.6-8.1-4
								c-0.8-0.8-2-0.9-2.8-0.4c-0.6,0.4-0.7,1.2-0.4,1.8c0,0,0,0.1,0.1,0.1c-0.6-0.2-1.3-0.2-1.8,0.2c-0.6,0.4-0.7,1.2-0.4,1.8
								c0,0.1,0.1,0.2,0.2,0.3c-0.3,0-0.6,0.1-0.8,0.3c-0.6,0.4-0.7,1.2-0.4,1.8c0.1,0.2,0.2,0.4,0.4,0.5c0.1,0.1,0.1,0.1,0.2,0.2
								c0,0-0.1,0-0.1,0c-0.6,0.4-0.7,1.2-0.4,1.8c0.1,0.2,0.2,0.4,0.4,0.5c1.2,1.3,2.5,2.3,3.7,3.1l0,0c0,0,0,0,0.1,0
								c0.6,0.4,1.1,0.7,1.7,1c2.6,1.5,8.1,0.2,12.9,1l3.7-7L459.3,206.9z"/>
						</g>
						
							<rect x="412.4" y="180.4" transform="matrix(-0.401 0.9161 -0.9161 -0.401 794.6658 -114.189)" class="st24" width="44.6" height="44.6"/>
						<path class="st21" d="M459.9,207.6l-3.6-4.2c-0.6-0.7-1.6-0.7-2.2,0l0,0c-0.4,0.5-0.5,1.1-0.2,1.6l1.8,3.6
							c0,0-1.6,4.9,2.2,9.1L459.9,207.6z"/>
					</g>
				</g>
				<g>
					<path class="st21" d="M517.2,226.7l-13.5,10.8c-2.7,2.2-6.5,2.4-9.5,0.6l0,0c-4.2-2.6-6.7-4.9-3.7-8.8l14.8-15L517.2,226.7z"/>
					<path class="st20" d="M527.7,213.8c0,0-1.8,8.8-12.4,16.9l-16.4-15.5l13.3-14.8L527.7,213.8z"/>
				</g>
			</g>
			<g>
				<g>
					<g>
						<path class="st21" d="M553.2,225.5l28.5,35.9l6.4-4.3c0,0-16.3-30.4-23.9-40c-4-5-12-3.7-14.2,2.3l0,0
							C549,222.2,551.3,223.3,553.2,225.5z"/>
					</g>
					<g>
						<path class="st21" d="M583.1,268.7c0.2,0.9,1,1.7,1.8,1.9c1.2,0.3,2.1-0.5,2.1-1.7l0-1c1.2,0.2,3.4,1.2,5.1,7.2
							c0.3,1,1.3,1.7,2.2,1.6c0.7-0.1,1.2-0.6,1.2-1.4c0,0,0-0.1,0-0.1c0.4,0.5,1,0.7,1.6,0.7c0.7-0.1,1.2-0.6,1.2-1.4
							c0-0.1,0-0.2,0-0.3c0.3,0.1,0.6,0.2,0.9,0.1c0.7-0.1,1.2-0.6,1.2-1.4c0-0.2,0-0.4-0.1-0.6c0-0.1,0-0.2-0.1-0.2
							c0,0,0.1,0,0.1,0c0.7-0.1,1.2-0.6,1.2-1.4c0-0.2,0-0.4-0.1-0.6c-0.5-1.6-1-3.1-1.7-4.4l0,0c0,0,0,0,0-0.1
							c-0.3-0.6-0.6-1.2-1-1.7c-1.5-2.5-6.8-4-10.6-6.9l-6.4,4.3L583.1,268.7z"/>
					</g>
				</g>
				<g>
					<path class="st21" d="M549,203.4l13,11.4c2.6,2.3,3.5,6,2.2,9.2l0,0c-1.8,4.6-3.7,7.5-8,5.2l-17.4-11.9L549,203.4z"/>
					<path class="st3" d="M532.3,195.4c0,0,11.1,0.2,20.9,9.2l-8.8,16.4l-17.4-6L532.3,195.4z"/>
				</g>
			</g>
			<g>
				<path class="st3" d="M518.2,196.4c0,0-10.8,3-10.8,17.4c0,7.9,7.9,22.1,7.9,22.1l24.3,0.1c0,0,3.6-9.9,5.7-18.9
					c2.1-9-4.7-17.5-13-21.8L518.2,196.4z"/>
				<polygon class="st20" points="544.3,221.1 534.8,214.2 542.2,228.5 				"/>
			</g>
		</g>
		<g>
			<g>
				<g>
					<g>
						<path class="st28" d="M524.4,201L524.4,201c3.4-0.5,4.6-2.8,4.1-6.1l-3.8-19.3l-10.2,1.6l2.8,18.6
							C517.9,199.2,521,201.5,524.4,201z"/>
					</g>
					<path class="st32" d="M522.4,179.4c0,0,3.3,10.3-5.5,13.8l-0.8-6.2l9-6.8"/>
				</g>
				<g>
					<path class="st28" d="M514.8,188.4L514.8,188.4c6.4-0.6,11.1-5.7,10.5-11.4l-1.8-18.6l-10.7,0c-3.9,0.4-9.4,5.6-9,9.1l1.9,11.5
						C506.1,183.3,509.5,188.9,514.8,188.4z"/>
					<path class="st28" d="M506.2,172.4l-2.4,6.2c-0.4,0.6,0.1,1.4,0.9,1.3l4.2-0.4L506.2,172.4z"/>
				</g>
			</g>
			<g>
				<path class="st27" d="M508.3,169.5c0,0-2.3,0.1-2.2,1c0,0,0.1,0.6,2.1,0.5c2-0.1,2.5-0.3,2.6-0.9
					C510.9,169.5,509.4,169.4,508.3,169.5z"/>
				<path class="st27" d="M508.4,174c0.1,0.5-0.3,1-0.8,1.1c-0.5,0.1-1-0.3-1.1-0.8c-0.1-0.5,0.3-1,0.8-1.1
					C507.9,173.1,508.4,173.5,508.4,174z"/>
				<path class="st29" d="M507.7,181.2c0,0,1.6,0,2.3-1.9"/>
			</g>
			<path class="st28" d="M525.4,194.3l6.9,1.1c0,0-7.2,11.7-14.4,8.9c-8.2-3.2,2.7-9.4,2.7-9.4L525.4,194.3z"/>
			<path class="st32" d="M522.5,173.2c-5.4-1.4-6.4-6.4-6.4-6.4l-14.3,2.8c0,0-2.2-14.2,14.9-16.9c8.6-1.3,14,2.8,16.9,6.9
				c2.7,3.9,3,9.1,1.1,13.5c-1.4,3.1-4.9,7.5-8.7,9.5l-1.3-7.1C524.7,175.6,523.5,173.5,522.5,173.2z"/>
			<g>
				<path class="st28" d="M529.3,172.2c0,2.5-2,4.6-4.5,4.6c-2.5,0-4.4-2.1-4.4-4.6c0-2.5,2-4.6,4.5-4.6
					C527.4,167.6,529.4,169.7,529.3,172.2z"/>
				<path class="st33" d="M523.4,173.3c0,0,0-3.3,3.1-2.8"/>
			</g>
			<path class="st32" d="M552,154c1,6-3,11.8-9.1,12.8c-6,1-11.8-3-12.8-9.1c-1-6,3-11.8,9.1-12.8C545.3,143.9,551,148,552,154z"/>
		</g>
	</g>
	<line class="st34" x1="649.2" y1="400.8" x2="13" y2="400.8"/>
</g>
<g id="DESIGNED_BY_FREEPIK">
	<g class="st0">
		<g id="XMLID_29_" class="st35">
			<g id="XMLID_48_">
				<path id="XMLID_56_" class="st36" d="M340.2,438.9c-0.4,0.4-0.8,0.9-1.1,1.5l-0.5-0.2c-0.1-0.3-0.3-0.5-0.7-0.5
					c-0.3,0-0.6,0.3-0.5,0.7c0,0.3,0.3,0.6,0.7,0.5c0.1,0,0.1,0,0.2-0.1l0.5,0.2c-0.3,0.6-0.4,1.1-0.5,1.7l0.7,0.1
					c0.2-1.3,0.8-2.5,1.8-3.5L340.2,438.9z"/>
				<path id="XMLID_55_" class="st36" d="M345.7,436.6c-0.2,0-0.3,0-0.5,0l-0.1-0.6c0.2-0.1,0.3-0.4,0.3-0.6c0-0.4-0.4-0.7-0.8-0.6
					c-0.4,0-0.7,0.4-0.6,0.8c0,0.3,0.2,0.5,0.4,0.6l0.1,0.6c-0.7,0.1-1.4,0.3-2.1,0.6l0.3,0.7c0.9-0.4,1.9-0.7,3-0.7
					c0.5,0,1,0.1,1.5,0.2l0.2-0.7C346.8,436.7,346.3,436.6,345.7,436.6z"/>
				<path id="XMLID_54_" class="st36" d="M352.3,439.1c0.3,0,0.6-0.3,0.5-0.7c0-0.3-0.3-0.6-0.7-0.5c-0.3,0-0.5,0.3-0.5,0.6
					l-0.4,0.4c-0.4-0.4-0.9-0.8-1.4-1.1l-0.4,0.6c1.1,0.7,2,1.7,2.6,2.9l0.7-0.3c-0.3-0.6-0.6-1.1-0.9-1.5l0.4-0.4
					C352.2,439.1,352.3,439.2,352.3,439.1z"/>
				<path id="XMLID_53_" class="st36" d="M345.2,446.8c-0.4,0-0.8,0-1.2,0c-0.9,0-1.7-0.1-2.5-0.2c-0.4-0.1-0.8-0.2-1.3-0.3
					c1,1.9,3.1,3.1,5.4,3.1c2.9,0,5.3-1.9,5.9-4.5c-0.7,0.4-1.5,0.8-2.5,1.1C348,446.5,346.6,446.7,345.2,446.8z"/>
				<path id="XMLID_49_" class="st36" d="M345.7,438.1c-3.4,0-6.1,2.7-6.1,5.9c0,0.4,0,0.8,0.1,1.3c0.7,0.5,2.7,0.9,5.3,0.7
					c2.9-0.2,5.3-1,6.7-2.2c0-0.2,0-0.4,0-0.6C351.4,440.3,348.8,438.1,345.7,438.1z M343.6,444.6c-1,0-1.8-0.8-1.8-1.8
					c0-1,0.8-1.8,1.8-1.8c1,0,1.8,0.8,1.8,1.8C345.4,443.8,344.6,444.6,343.6,444.6z M348.3,443.7c-0.8,0-1.4-0.6-1.4-1.4
					c0-0.8,0.6-1.4,1.4-1.4c0.8,0,1.4,0.6,1.4,1.4C349.7,443.1,349,443.7,348.3,443.7z"/>
			</g>
			<path id="XMLID_46_" class="st36" d="M361.7,440c-0.3-0.1-0.8-0.3-1.4-0.2c-0.6,0.1-0.8,0.3-0.8,1v0.9h2.2v1.7h-2.2v5.5h-1.9
				v-5.5h-1.3v-1.7h1.3v-0.9c0-1.7,0.9-2.8,2.6-2.8c0.6,0,1.2,0.1,1.6,0.3L361.7,440z"/>
			<path id="XMLID_44_" class="st36" d="M366.4,443.3c-0.2,0-0.4,0-0.5,0c-0.9,0-1.5,0.5-1.5,1.6v3.9h-1.9v-7.2h1.9v0.8
				c0.5-0.7,1.1-1,2-1c0.4,0,0.8,0.1,1.1,0.3L366.4,443.3z"/>
			<path id="XMLID_41_" class="st36" d="M374.1,445.2c0,0.2,0,0.5,0,0.7H369c0.2,1,0.9,1.5,1.8,1.5c0.6,0,1.3-0.3,1.8-0.7l1.1,1.2
				c-0.8,0.7-1.9,1.1-3.1,1.1c-2.2,0-3.7-1.5-3.7-3.8c0-2.3,1.5-3.8,3.6-3.8C372.7,441.4,374.1,443,374.1,445.2z M369,444.5h3.2
				c-0.2-0.9-0.7-1.4-1.6-1.4C369.7,443.1,369.1,443.6,369,444.5z"/>
			<path id="XMLID_38_" class="st36" d="M381.7,445.2c0,0.2,0,0.5,0,0.7h-5.1c0.2,1,0.9,1.5,1.8,1.5c0.6,0,1.3-0.3,1.8-0.7l1.1,1.2
				c-0.8,0.7-1.9,1.1-3.1,1.1c-2.2,0-3.7-1.5-3.7-3.8c0-2.3,1.5-3.8,3.6-3.8C380.3,441.4,381.7,443,381.7,445.2z M376.6,444.5h3.2
				c-0.2-0.9-0.7-1.4-1.6-1.4C377.3,443.1,376.8,443.6,376.6,444.5z"/>
			<path id="XMLID_35_" class="st36" d="M390.1,445.2c0,2.2-1.5,3.8-3.5,3.8c-1,0-1.6-0.4-2.1-0.9v3.7h-1.9v-10.1h1.9v0.8
				c0.5-0.6,1.2-1,2.1-1C388.6,441.4,390.1,443,390.1,445.2z M384.4,445.2c0,1.1,0.7,2,1.8,2c1.1,0,1.9-0.9,1.9-2c0-1.1-0.7-2-1.9-2
				C385.2,443.2,384.4,444.1,384.4,445.2z"/>
			<path id="XMLID_32_" class="st36" d="M393.2,439.3c0,0.7-0.5,1.2-1.2,1.2c-0.7,0-1.2-0.5-1.2-1.2c0-0.7,0.5-1.2,1.2-1.2
				C392.6,438,393.2,438.6,393.2,439.3z M392.9,448.8H391v-7.2h1.9V448.8z"/>
			<path id="XMLID_30_" class="st36" d="M396.2,444.2l2.7-2.6h2.4l-3.5,3.4l3.5,3.8h-2.4l-2.7-2.9v2.9h-1.9v-10.7h1.9V444.2z"/>
		</g>
		<g class="st35">
			<path class="st36" d="M264.5,448.7v-1.1c-0.5,0.7-1.4,1.2-2.4,1.2c-1.8,0-3.1-1.4-3.1-3.7c0-2.3,1.3-3.7,3.1-3.7
				c1,0,1.8,0.5,2.4,1.2V439h1.1v9.8H264.5z M264.5,446.8v-3.2c-0.4-0.6-1.2-1.1-2.1-1.1c-1.4,0-2.3,1.2-2.3,2.7
				c0,1.6,0.8,2.7,2.3,2.7C263.3,447.9,264.1,447.4,264.5,446.8z"/>
			<path class="st36" d="M267.1,445.2c0-2.1,1.5-3.7,3.5-3.7c2.1,0,3.4,1.7,3.4,3.8v0.3h-5.7c0.1,1.3,1,2.4,2.5,2.4
				c0.8,0,1.6-0.3,2.2-0.9l0.5,0.7c-0.7,0.7-1.7,1.1-2.8,1.1C268.6,448.9,267.1,447.4,267.1,445.2z M270.5,442.4
				c-1.5,0-2.3,1.3-2.3,2.4h4.6C272.8,443.7,272.1,442.4,270.5,442.4z"/>
			<path class="st36" d="M274.7,447.8l0.6-0.8c0.5,0.5,1.4,1,2.3,1c1.1,0,1.7-0.5,1.7-1.2c0-1.7-4.4-0.7-4.4-3.3c0-1.1,1-2,2.6-2
				c1.2,0,2.1,0.5,2.6,1l-0.5,0.8c-0.4-0.5-1.2-0.9-2.1-0.9c-1,0-1.6,0.5-1.6,1.1c0,1.6,4.4,0.5,4.4,3.3c0,1.2-1,2.1-2.8,2.1
				C276.4,448.9,275.4,448.5,274.7,447.8z"/>
			<path class="st36" d="M281.6,439.9c0-0.4,0.3-0.7,0.7-0.7c0.4,0,0.7,0.3,0.7,0.7c0,0.4-0.3,0.7-0.7,0.7
				C281.9,440.6,281.6,440.3,281.6,439.9z M281.8,448.7v-7.1h1.1v7.1H281.8z"/>
			<path class="st36" d="M284.7,450.5l0.6-0.8c0.6,0.7,1.3,1,2.3,1c1.2,0,2.3-0.6,2.3-2.1v-1c-0.5,0.7-1.4,1.3-2.4,1.3
				c-1.8,0-3.1-1.4-3.1-3.7c0-2.3,1.3-3.7,3.1-3.7c1,0,1.8,0.5,2.4,1.2v-1.1h1.1v6.9c0,2.3-1.6,3.1-3.4,3.1
				C286.4,451.6,285.5,451.4,284.7,450.5z M289.8,446.7v-3.1c-0.4-0.6-1.2-1.1-2.1-1.1c-1.4,0-2.3,1.1-2.3,2.7
				c0,1.6,0.8,2.7,2.3,2.7C288.6,447.8,289.5,447.3,289.8,446.7z"/>
			<path class="st36" d="M297.5,448.7v-4.6c0-1.2-0.6-1.6-1.6-1.6c-0.9,0-1.7,0.5-2.1,1.1v5.2h-1.1v-7.1h1.1v1
				c0.5-0.6,1.5-1.2,2.5-1.2c1.5,0,2.3,0.7,2.3,2.3v5H297.5z"/>
			<path class="st36" d="M300.1,445.2c0-2.1,1.5-3.7,3.5-3.7c2.1,0,3.4,1.7,3.4,3.8v0.3h-5.7c0.1,1.3,1,2.4,2.5,2.4
				c0.8,0,1.6-0.3,2.2-0.9l0.5,0.7c-0.7,0.7-1.7,1.1-2.8,1.1C301.6,448.9,300.1,447.4,300.1,445.2z M303.5,442.4
				c-1.5,0-2.3,1.3-2.3,2.4h4.6C305.8,443.7,305.1,442.4,303.5,442.4z"/>
			<path class="st36" d="M313.5,448.7v-1.1c-0.5,0.7-1.4,1.2-2.4,1.2c-1.8,0-3.1-1.4-3.1-3.7c0-2.3,1.3-3.7,3.1-3.7
				c1,0,1.8,0.5,2.4,1.2V439h1.1v9.8H313.5z M313.5,446.8v-3.2c-0.4-0.6-1.2-1.1-2.1-1.1c-1.4,0-2.3,1.2-2.3,2.7
				c0,1.6,0.8,2.7,2.3,2.7C312.2,447.9,313.1,447.4,313.5,446.8z"/>
			<path class="st36" d="M319.8,448.7V439h1.1v3.8c0.6-0.8,1.4-1.2,2.4-1.2c1.8,0,3.1,1.5,3.1,3.7c0,2.3-1.3,3.7-3.1,3.7
				c-1,0-1.9-0.5-2.4-1.2v1.1H319.8z M323,447.9c1.4,0,2.3-1.2,2.3-2.7c0-1.6-0.8-2.7-2.3-2.7c-0.9,0-1.7,0.5-2.1,1.1v3.2
				C321.3,447.4,322.2,447.9,323,447.9z"/>
			<path class="st36" d="M327.7,450.5c0.2,0.1,0.4,0.1,0.6,0.1c0.5,0,0.8-0.2,1.1-0.7l0.5-1.1l-3-7.1h1.2l2.4,5.8l2.3-5.8h1.2
				l-3.5,8.5c-0.4,1-1.1,1.4-2.1,1.4c-0.2,0-0.6,0-0.8-0.1L327.7,450.5z"/>
		</g>
	</g>
</g>
</svg>
